{
    "asset" : {
        "generator" : "Khronos glTF Blender I/O v1.1.45",
        "version" : "2.0"
    },
    "scene" : 0,
    "scenes" : [
        {
            "name" : "Scene",
            "nodes" : [
                0,
                1,
                2,
                3
            ]
        }
    ],
    "nodes" : [
        {
            "mesh" : 0,
            "name" : "mag"
        },
        {
            "mesh" : 1,
            "name" : "mp5"
        },
        {
            "name" : "Lamp",
            "rotation" : [
                0.5653244256973267,
                0.2742583155632019,
                -0.12349546700716019,
                0.7680752277374268
            ],
            "translation" : [
                4.076245307922363,
                5.903861999511719,
                -1.0054539442062378
            ]
        },
        {
            "name" : "Camera",
            "rotation" : [
                0.483536034822464,
                0.33687159419059753,
                -0.20870360732078552,
                0.7804827094078064
            ],
            "translation" : [
                7.481131553649902,
                7.410304546356201,
                6.5076398849487305
            ]
        }
    ],
    "materials" : [
        {
            "doubleSided" : true,
            "name" : "metal",
            "pbrMetallicRoughness" : {}
        },
        {
            "doubleSided" : true,
            "name" : "metal_dark",
            "pbrMetallicRoughness" : {}
        },
        {
            "doubleSided" : true,
            "name" : "glass_blue",
            "pbrMetallicRoughness" : {}
        },
        {
            "doubleSided" : true,
            "name" : "metal_light",
            "pbrMetallicRoughness" : {}
        }
    ],
    "meshes" : [
        {
            "name" : "Cube.000",
            "primitives" : [
                {
                    "attributes" : {
                        "POSITION" : 0,
                        "NORMAL" : 1
                    },
                    "indices" : 2,
                    "material" : 0
                }
            ]
        },
        {
            "name" : "Cube.001",
            "primitives" : [
                {
                    "attributes" : {
                        "POSITION" : 3,
                        "NORMAL" : 4
                    },
                    "indices" : 5,
                    "material" : 1
                },
                {
                    "attributes" : {
                        "POSITION" : 6,
                        "NORMAL" : 7
                    },
                    "indices" : 8,
                    "material" : 2
                },
                {
                    "attributes" : {
                        "POSITION" : 9,
                        "NORMAL" : 10
                    },
                    "indices" : 11,
                    "material" : 3
                },
                {
                    "attributes" : {
                        "POSITION" : 12,
                        "NORMAL" : 13
                    },
                    "indices" : 14,
                    "material" : 0
                }
            ]
        }
    ],
    "accessors" : [
        {
            "bufferView" : 0,
            "componentType" : 5126,
            "count" : 40,
            "max" : [
                0.06776776909828186,
                0.16298751533031464,
                0.007214616052806377
            ],
            "min" : [
                -0.01439502090215683,
                0.005167323164641857,
                -0.0072145527228713036
            ],
            "type" : "VEC3"
        },
        {
            "bufferView" : 1,
            "componentType" : 5126,
            "count" : 40,
            "type" : "VEC3"
        },
        {
            "bufferView" : 2,
            "componentType" : 5123,
            "count" : 60,
            "type" : "SCALAR"
        },
        {
            "bufferView" : 3,
            "componentType" : 5126,
            "count" : 412,
            "max" : [
                0.28559601306915283,
                0.2743759751319885,
                0.020874042063951492
            ],
            "min" : [
                -0.21365654468536377,
                0.14224639534950256,
                -0.02087397128343582
            ],
            "type" : "VEC3"
        },
        {
            "bufferView" : 4,
            "componentType" : 5126,
            "count" : 412,
            "type" : "VEC3"
        },
        {
            "bufferView" : 5,
            "componentType" : 5123,
            "count" : 660,
            "type" : "SCALAR"
        },
        {
            "bufferView" : 6,
            "componentType" : 5126,
            "count" : 8,
            "max" : [
                0.21511198580265045,
                0.2726024091243744,
                0.009452122263610363
            ],
            "min" : [
                0.20543751120567322,
                0.25230368971824646,
                -0.010846522636711597
            ],
            "type" : "VEC3"
        },
        {
            "bufferView" : 7,
            "componentType" : 5126,
            "count" : 8,
            "type" : "VEC3"
        },
        {
            "bufferView" : 8,
            "componentType" : 5123,
            "count" : 12,
            "type" : "SCALAR"
        },
        {
            "bufferView" : 9,
            "componentType" : 5126,
            "count" : 100,
            "max" : [
                0.28559601306915283,
                0.238875612616539,
                0.018424341455101967
            ],
            "min" : [
                -0.13822484016418457,
                0.15761779248714447,
                -0.01981874369084835
            ],
            "type" : "VEC3"
        },
        {
            "bufferView" : 10,
            "componentType" : 5126,
            "count" : 100,
            "type" : "VEC3"
        },
        {
            "bufferView" : 11,
            "componentType" : 5123,
            "count" : 168,
            "type" : "SCALAR"
        },
        {
            "bufferView" : 12,
            "componentType" : 5126,
            "count" : 164,
            "max" : [
                0.20004931092262268,
                0.23508703708648682,
                0.023170385509729385
            ],
            "min" : [
                -0.3061648905277252,
                0.05368579179048538,
                -0.023170385509729385
            ],
            "type" : "VEC3"
        },
        {
            "bufferView" : 13,
            "componentType" : 5126,
            "count" : 164,
            "type" : "VEC3"
        },
        {
            "bufferView" : 14,
            "componentType" : 5123,
            "count" : 252,
            "type" : "SCALAR"
        }
    ],
    "bufferViews" : [
        {
            "buffer" : 0,
            "byteLength" : 480,
            "byteOffset" : 0
        },
        {
            "buffer" : 0,
            "byteLength" : 480,
            "byteOffset" : 480
        },
        {
            "buffer" : 0,
            "byteLength" : 120,
            "byteOffset" : 960
        },
        {
            "buffer" : 0,
            "byteLength" : 4944,
            "byteOffset" : 1080
        },
        {
            "buffer" : 0,
            "byteLength" : 4944,
            "byteOffset" : 6024
        },
        {
            "buffer" : 0,
            "byteLength" : 1320,
            "byteOffset" : 10968
        },
        {
            "buffer" : 0,
            "byteLength" : 96,
            "byteOffset" : 12288
        },
        {
            "buffer" : 0,
            "byteLength" : 96,
            "byteOffset" : 12384
        },
        {
            "buffer" : 0,
            "byteLength" : 24,
            "byteOffset" : 12480
        },
        {
            "buffer" : 0,
            "byteLength" : 1200,
            "byteOffset" : 12504
        },
        {
            "buffer" : 0,
            "byteLength" : 1200,
            "byteOffset" : 13704
        },
        {
            "buffer" : 0,
            "byteLength" : 336,
            "byteOffset" : 14904
        },
        {
            "buffer" : 0,
            "byteLength" : 1968,
            "byteOffset" : 15240
        },
        {
            "buffer" : 0,
            "byteLength" : 1968,
            "byteOffset" : 17208
        },
        {
            "buffer" : 0,
            "byteLength" : 504,
            "byteOffset" : 19176
        }
    ],
    "buffers" : [
        {
            "byteLength" : 19680,
            "uri" : "data:application/octet-stream;base64,"
        }
    ]
}
